<svg xmlns="http://www.w3.org/2000/svg" width="1200" height="340" viewBox="0 0 1200 340" role="img" aria-label="Robiul Hasan Nowshad, Senior Software Engineer">
<rect width="1200" height="340" fill="#ffffff"/>
<circle cx="740" cy="20" r="1" fill="#eaeef2"/><circle cx="740" cy="40" r="1" fill="#eaeef2"/><circle cx="740" cy="60" r="1" fill="#eaeef2"/><circle cx="740" cy="80" r="1" fill="#eaeef2"/><circle cx="740" cy="100" r="1" fill="#eaeef2"/><circle cx="740" cy="120" r="1" fill="#eaeef2"/><circle cx="740" cy="140" r="1" fill="#eaeef2"/><circle cx="740" cy="160" r="1" fill="#eaeef2"/><circle cx="740" cy="180" r="1" fill="#eaeef2"/><circle cx="740" cy="200" r="1" fill="#eaeef2"/><circle cx="740" cy="220" r="1" fill="#eaeef2"/><circle cx="740" cy="240" r="1" fill="#eaeef2"/><circle cx="740" cy="260" r="1" fill="#eaeef2"/><circle cx="740" cy="280" r="1" fill="#eaeef2"/><circle cx="740" cy="300" r="1" fill="#eaeef2"/><circle cx="740" cy="320" r="1" fill="#eaeef2"/><circle cx="760" cy="20" r="1" fill="#eaeef2"/><circle cx="760" cy="40" r="1" fill="#eaeef2"/><circle cx="760" cy="60" r="1" fill="#eaeef2"/><circle cx="760" cy="80" r="1" fill="#eaeef2"/><circle cx="760" cy="100" r="1" fill="#eaeef2"/><circle cx="760" cy="120" r="1" fill="#eaeef2"/><circle cx="760" cy="140" r="1" fill="#eaeef2"/><circle cx="760" cy="160" r="1" fill="#eaeef2"/><circle cx="760" cy="180" r="1" fill="#eaeef2"/><circle cx="760" cy="200" r="1" fill="#eaeef2"/><circle cx="760" cy="220" r="1" fill="#eaeef2"/><circle cx="760" cy="240" r="1" fill="#eaeef2"/><circle cx="760" cy="260" r="1" fill="#eaeef2"/><circle cx="760" cy="280" r="1" fill="#eaeef2"/><circle cx="760" cy="300" r="1" fill="#eaeef2"/><circle cx="760" cy="320" r="1" fill="#eaeef2"/><circle cx="780" cy="20" r="1" fill="#eaeef2"/><circle cx="780" cy="40" r="1" fill="#eaeef2"/><circle cx="780" cy="60" r="1" fill="#eaeef2"/><circle cx="780" cy="80" r="1" fill="#eaeef2"/><circle cx="780" cy="100" r="1" fill="#eaeef2"/><circle cx="780" cy="120" r="1" fill="#eaeef2"/><circle cx="780" cy="140" r="1" fill="#eaeef2"/><circle cx="780" cy="160" r="1" fill="#eaeef2"/><circle cx="780" cy="180" r="1" fill="#eaeef2"/><circle cx="780" cy="200" r="1" fill="#eaeef2"/><circle cx="780" cy="220" r="1" fill="#eaeef2"/><circle cx="780" cy="240" r="1" fill="#eaeef2"/><circle cx="780" cy="260" r="1" fill="#eaeef2"/><circle cx="780" cy="280" r="1" fill="#eaeef2"/><circle cx="780" cy="300" r="1" fill="#eaeef2"/><circle cx="780" cy="320" r="1" fill="#eaeef2"/><circle cx="800" cy="20" r="1" fill="#eaeef2"/><circle cx="800" cy="40" r="1" fill="#eaeef2"/><circle cx="800" cy="60" r="1" fill="#eaeef2"/><circle cx="800" cy="80" r="1" fill="#eaeef2"/><circle cx="800" cy="100" r="1" fill="#eaeef2"/><circle cx="800" cy="120" r="1" fill="#eaeef2"/><circle cx="800" cy="140" r="1" fill="#eaeef2"/><circle cx="800" cy="160" r="1" fill="#eaeef2"/><circle cx="800" cy="180" r="1" fill="#eaeef2"/><circle cx="800" cy="200" r="1" fill="#eaeef2"/><circle cx="800" cy="220" r="1" fill="#eaeef2"/><circle cx="800" cy="240" r="1" fill="#eaeef2"/><circle cx="800" cy="260" r="1" fill="#eaeef2"/><circle cx="800" cy="280" r="1" fill="#eaeef2"/><circle cx="800" cy="300" r="1" fill="#eaeef2"/><circle cx="800" cy="320" r="1" fill="#eaeef2"/><circle cx="820" cy="20" r="1" fill="#eaeef2"/><circle cx="820" cy="40" r="1" fill="#eaeef2"/><circle cx="820" cy="60" r="1" fill="#eaeef2"/><circle cx="820" cy="80" r="1" fill="#eaeef2"/><circle cx="820" cy="100" r="1" fill="#eaeef2"/><circle cx="820" cy="120" r="1" fill="#eaeef2"/><circle cx="820" cy="140" r="1" fill="#eaeef2"/><circle cx="820" cy="160" r="1" fill="#eaeef2"/><circle cx="820" cy="180" r="1" fill="#eaeef2"/><circle cx="820" cy="200" r="1" fill="#eaeef2"/><circle cx="820" cy="220" r="1" fill="#eaeef2"/><circle cx="820" cy="240" r="1" fill="#eaeef2"/><circle cx="820" cy="260" r="1" fill="#eaeef2"/><circle cx="820" cy="280" r="1" fill="#eaeef2"/><circle cx="820" cy="300" r="1" fill="#eaeef2"/><circle cx="820" cy="320" r="1" fill="#eaeef2"/><circle cx="840" cy="20" r="1" fill="#eaeef2"/><circle cx="840" cy="40" r="1" fill="#eaeef2"/><circle cx="840" cy="60" r="1" fill="#eaeef2"/><circle cx="840" cy="80" r="1" fill="#eaeef2"/><circle cx="840" cy="100" r="1" fill="#eaeef2"/><circle cx="840" cy="120" r="1" fill="#eaeef2"/><circle cx="840" cy="140" r="1" fill="#eaeef2"/><circle cx="840" cy="160" r="1" fill="#eaeef2"/><circle cx="840" cy="180" r="1" fill="#eaeef2"/><circle cx="840" cy="200" r="1" fill="#eaeef2"/><circle cx="840" cy="220" r="1" fill="#eaeef2"/><circle cx="840" cy="240" r="1" fill="#eaeef2"/><circle cx="840" cy="260" r="1" fill="#eaeef2"/><circle cx="840" cy="280" r="1" fill="#eaeef2"/><circle cx="840" cy="300" r="1" fill="#eaeef2"/><circle cx="840" cy="320" r="1" fill="#eaeef2"/><circle cx="860" cy="20" r="1" fill="#eaeef2"/><circle cx="860" cy="40" r="1" fill="#eaeef2"/><circle cx="860" cy="60" r="1" fill="#eaeef2"/><circle cx="860" cy="80" r="1" fill="#eaeef2"/><circle cx="860" cy="100" r="1" fill="#eaeef2"/><circle cx="860" cy="120" r="1" fill="#eaeef2"/><circle cx="860" cy="140" r="1" fill="#eaeef2"/><circle cx="860" cy="160" r="1" fill="#eaeef2"/><circle cx="860" cy="180" r="1" fill="#eaeef2"/><circle cx="860" cy="200" r="1" fill="#eaeef2"/><circle cx="860" cy="220" r="1" fill="#eaeef2"/><circle cx="860" cy="240" r="1" fill="#eaeef2"/><circle cx="860" cy="260" r="1" fill="#eaeef2"/><circle cx="860" cy="280" r="1" fill="#eaeef2"/><circle cx="860" cy="300" r="1" fill="#eaeef2"/><circle cx="860" cy="320" r="1" fill="#eaeef2"/><circle cx="880" cy="20" r="1" fill="#eaeef2"/><circle cx="880" cy="40" r="1" fill="#eaeef2"/><circle cx="880" cy="60" r="1" fill="#eaeef2"/><circle cx="880" cy="80" r="1" fill="#eaeef2"/><circle cx="880" cy="100" r="1" fill="#eaeef2"/><circle cx="880" cy="120" r="1" fill="#eaeef2"/><circle cx="880" cy="140" r="1" fill="#eaeef2"/><circle cx="880" cy="160" r="1" fill="#eaeef2"/><circle cx="880" cy="180" r="1" fill="#eaeef2"/><circle cx="880" cy="200" r="1" fill="#eaeef2"/><circle cx="880" cy="220" r="1" fill="#eaeef2"/><circle cx="880" cy="240" r="1" fill="#eaeef2"/><circle cx="880" cy="260" r="1" fill="#eaeef2"/><circle cx="880" cy="280" r="1" fill="#eaeef2"/><circle cx="880" cy="300" r="1" fill="#eaeef2"/><circle cx="880" cy="320" r="1" fill="#eaeef2"/><circle cx="900" cy="20" r="1" fill="#eaeef2"/><circle cx="900" cy="40" r="1" fill="#eaeef2"/><circle cx="900" cy="60" r="1" fill="#eaeef2"/><circle cx="900" cy="80" r="1" fill="#eaeef2"/><circle cx="900" cy="100" r="1" fill="#eaeef2"/><circle cx="900" cy="120" r="1" fill="#eaeef2"/><circle cx="900" cy="140" r="1" fill="#eaeef2"/><circle cx="900" cy="160" r="1" fill="#eaeef2"/><circle cx="900" cy="180" r="1" fill="#eaeef2"/><circle cx="900" cy="200" r="1" fill="#eaeef2"/><circle cx="900" cy="220" r="1" fill="#eaeef2"/><circle cx="900" cy="240" r="1" fill="#eaeef2"/><circle cx="900" cy="260" r="1" fill="#eaeef2"/><circle cx="900" cy="280" r="1" fill="#eaeef2"/><circle cx="900" cy="300" r="1" fill="#eaeef2"/><circle cx="900" cy="320" r="1" fill="#eaeef2"/><circle cx="920" cy="20" r="1" fill="#eaeef2"/><circle cx="920" cy="40" r="1" fill="#eaeef2"/><circle cx="920" cy="60" r="1" fill="#eaeef2"/><circle cx="920" cy="80" r="1" fill="#eaeef2"/><circle cx="920" cy="100" r="1" fill="#eaeef2"/><circle cx="920" cy="120" r="1" fill="#eaeef2"/><circle cx="920" cy="140" r="1" fill="#eaeef2"/><circle cx="920" cy="160" r="1" fill="#eaeef2"/><circle cx="920" cy="180" r="1" fill="#eaeef2"/><circle cx="920" cy="200" r="1" fill="#eaeef2"/><circle cx="920" cy="220" r="1" fill="#eaeef2"/><circle cx="920" cy="240" r="1" fill="#eaeef2"/><circle cx="920" cy="260" r="1" fill="#eaeef2"/><circle cx="920" cy="280" r="1" fill="#eaeef2"/><circle cx="920" cy="300" r="1" fill="#eaeef2"/><circle cx="920" cy="320" r="1" fill="#eaeef2"/><circle cx="940" cy="20" r="1" fill="#eaeef2"/><circle cx="940" cy="40" r="1" fill="#eaeef2"/><circle cx="940" cy="60" r="1" fill="#eaeef2"/><circle cx="940" cy="80" r="1" fill="#eaeef2"/><circle cx="940" cy="100" r="1" fill="#eaeef2"/><circle cx="940" cy="120" r="1" fill="#eaeef2"/><circle cx="940" cy="140" r="1" fill="#eaeef2"/><circle cx="940" cy="160" r="1" fill="#eaeef2"/><circle cx="940" cy="180" r="1" fill="#eaeef2"/><circle cx="940" cy="200" r="1" fill="#eaeef2"/><circle cx="940" cy="220" r="1" fill="#eaeef2"/><circle cx="940" cy="240" r="1" fill="#eaeef2"/><circle cx="940" cy="260" r="1" fill="#eaeef2"/><circle cx="940" cy="280" r="1" fill="#eaeef2"/><circle cx="940" cy="300" r="1" fill="#eaeef2"/><circle cx="940" cy="320" r="1" fill="#eaeef2"/><circle cx="960" cy="20" r="1" fill="#eaeef2"/><circle cx="960" cy="40" r="1" fill="#eaeef2"/><circle cx="960" cy="60" r="1" fill="#eaeef2"/><circle cx="960" cy="80" r="1" fill="#eaeef2"/><circle cx="960" cy="100" r="1" fill="#eaeef2"/><circle cx="960" cy="120" r="1" fill="#eaeef2"/><circle cx="960" cy="140" r="1" fill="#eaeef2"/><circle cx="960" cy="160" r="1" fill="#eaeef2"/><circle cx="960" cy="180" r="1" fill="#eaeef2"/><circle cx="960" cy="200" r="1" fill="#eaeef2"/><circle cx="960" cy="220" r="1" fill="#eaeef2"/><circle cx="960" cy="240" r="1" fill="#eaeef2"/><circle cx="960" cy="260" r="1" fill="#eaeef2"/><circle cx="960" cy="280" r="1" fill="#eaeef2"/><circle cx="960" cy="300" r="1" fill="#eaeef2"/><circle cx="960" cy="320" r="1" fill="#eaeef2"/><circle cx="980" cy="20" r="1" fill="#eaeef2"/><circle cx="980" cy="40" r="1" fill="#eaeef2"/><circle cx="980" cy="60" r="1" fill="#eaeef2"/><circle cx="980" cy="80" r="1" fill="#eaeef2"/><circle cx="980" cy="100" r="1" fill="#eaeef2"/><circle cx="980" cy="120" r="1" fill="#eaeef2"/><circle cx="980" cy="140" r="1" fill="#eaeef2"/><circle cx="980" cy="160" r="1" fill="#eaeef2"/><circle cx="980" cy="180" r="1" fill="#eaeef2"/><circle cx="980" cy="200" r="1" fill="#eaeef2"/><circle cx="980" cy="220" r="1" fill="#eaeef2"/><circle cx="980" cy="240" r="1" fill="#eaeef2"/><circle cx="980" cy="260" r="1" fill="#eaeef2"/><circle cx="980" cy="280" r="1" fill="#eaeef2"/><circle cx="980" cy="300" r="1" fill="#eaeef2"/><circle cx="980" cy="320" r="1" fill="#eaeef2"/><circle cx="1000" cy="20" r="1" fill="#eaeef2"/><circle cx="1000" cy="40" r="1" fill="#eaeef2"/><circle cx="1000" cy="60" r="1" fill="#eaeef2"/><circle cx="1000" cy="80" r="1" fill="#eaeef2"/><circle cx="1000" cy="100" r="1" fill="#eaeef2"/><circle cx="1000" cy="120" r="1" fill="#eaeef2"/><circle cx="1000" cy="140" r="1" fill="#eaeef2"/><circle cx="1000" cy="160" r="1" fill="#eaeef2"/><circle cx="1000" cy="180" r="1" fill="#eaeef2"/><circle cx="1000" cy="200" r="1" fill="#eaeef2"/><circle cx="1000" cy="220" r="1" fill="#eaeef2"/><circle cx="1000" cy="240" r="1" fill="#eaeef2"/><circle cx="1000" cy="260" r="1" fill="#eaeef2"/><circle cx="1000" cy="280" r="1" fill="#eaeef2"/><circle cx="1000" cy="300" r="1" fill="#eaeef2"/><circle cx="1000" cy="320" r="1" fill="#eaeef2"/><circle cx="1020" cy="20" r="1" fill="#eaeef2"/><circle cx="1020" cy="40" r="1" fill="#eaeef2"/><circle cx="1020" cy="60" r="1" fill="#eaeef2"/><circle cx="1020" cy="80" r="1" fill="#eaeef2"/><circle cx="1020" cy="100" r="1" fill="#eaeef2"/><circle cx="1020" cy="120" r="1" fill="#eaeef2"/><circle cx="1020" cy="140" r="1" fill="#eaeef2"/><circle cx="1020" cy="160" r="1" fill="#eaeef2"/><circle cx="1020" cy="180" r="1" fill="#eaeef2"/><circle cx="1020" cy="200" r="1" fill="#eaeef2"/><circle cx="1020" cy="220" r="1" fill="#eaeef2"/><circle cx="1020" cy="240" r="1" fill="#eaeef2"/><circle cx="1020" cy="260" r="1" fill="#eaeef2"/><circle cx="1020" cy="280" r="1" fill="#eaeef2"/><circle cx="1020" cy="300" r="1" fill="#eaeef2"/><circle cx="1020" cy="320" r="1" fill="#eaeef2"/><circle cx="1040" cy="20" r="1" fill="#eaeef2"/><circle cx="1040" cy="40" r="1" fill="#eaeef2"/><circle cx="1040" cy="60" r="1" fill="#eaeef2"/><circle cx="1040" cy="80" r="1" fill="#eaeef2"/><circle cx="1040" cy="100" r="1" fill="#eaeef2"/><circle cx="1040" cy="120" r="1" fill="#eaeef2"/><circle cx="1040" cy="140" r="1" fill="#eaeef2"/><circle cx="1040" cy="160" r="1" fill="#eaeef2"/><circle cx="1040" cy="180" r="1" fill="#eaeef2"/><circle cx="1040" cy="200" r="1" fill="#eaeef2"/><circle cx="1040" cy="220" r="1" fill="#eaeef2"/><circle cx="1040" cy="240" r="1" fill="#eaeef2"/><circle cx="1040" cy="260" r="1" fill="#eaeef2"/><circle cx="1040" cy="280" r="1" fill="#eaeef2"/><circle cx="1040" cy="300" r="1" fill="#eaeef2"/><circle cx="1040" cy="320" r="1" fill="#eaeef2"/><circle cx="1060" cy="20" r="1" fill="#eaeef2"/><circle cx="1060" cy="40" r="1" fill="#eaeef2"/><circle cx="1060" cy="60" r="1" fill="#eaeef2"/><circle cx="1060" cy="80" r="1" fill="#eaeef2"/><circle cx="1060" cy="100" r="1" fill="#eaeef2"/><circle cx="1060" cy="120" r="1" fill="#eaeef2"/><circle cx="1060" cy="140" r="1" fill="#eaeef2"/><circle cx="1060" cy="160" r="1" fill="#eaeef2"/><circle cx="1060" cy="180" r="1" fill="#eaeef2"/><circle cx="1060" cy="200" r="1" fill="#eaeef2"/><circle cx="1060" cy="220" r="1" fill="#eaeef2"/><circle cx="1060" cy="240" r="1" fill="#eaeef2"/><circle cx="1060" cy="260" r="1" fill="#eaeef2"/><circle cx="1060" cy="280" r="1" fill="#eaeef2"/><circle cx="1060" cy="300" r="1" fill="#eaeef2"/><circle cx="1060" cy="320" r="1" fill="#eaeef2"/><circle cx="1080" cy="20" r="1" fill="#eaeef2"/><circle cx="1080" cy="40" r="1" fill="#eaeef2"/><circle cx="1080" cy="60" r="1" fill="#eaeef2"/><circle cx="1080" cy="80" r="1" fill="#eaeef2"/><circle cx="1080" cy="100" r="1" fill="#eaeef2"/><circle cx="1080" cy="120" r="1" fill="#eaeef2"/><circle cx="1080" cy="140" r="1" fill="#eaeef2"/><circle cx="1080" cy="160" r="1" fill="#eaeef2"/><circle cx="1080" cy="180" r="1" fill="#eaeef2"/><circle cx="1080" cy="200" r="1" fill="#eaeef2"/><circle cx="1080" cy="220" r="1" fill="#eaeef2"/><circle cx="1080" cy="240" r="1" fill="#eaeef2"/><circle cx="1080" cy="260" r="1" fill="#eaeef2"/><circle cx="1080" cy="280" r="1" fill="#eaeef2"/><circle cx="1080" cy="300" r="1" fill="#eaeef2"/><circle cx="1080" cy="320" r="1" fill="#eaeef2"/><circle cx="1100" cy="20" r="1" fill="#eaeef2"/><circle cx="1100" cy="40" r="1" fill="#eaeef2"/><circle cx="1100" cy="60" r="1" fill="#eaeef2"/><circle cx="1100" cy="80" r="1" fill="#eaeef2"/><circle cx="1100" cy="100" r="1" fill="#eaeef2"/><circle cx="1100" cy="120" r="1" fill="#eaeef2"/><circle cx="1100" cy="140" r="1" fill="#eaeef2"/><circle cx="1100" cy="160" r="1" fill="#eaeef2"/><circle cx="1100" cy="180" r="1" fill="#eaeef2"/><circle cx="1100" cy="200" r="1" fill="#eaeef2"/><circle cx="1100" cy="220" r="1" fill="#eaeef2"/><circle cx="1100" cy="240" r="1" fill="#eaeef2"/><circle cx="1100" cy="260" r="1" fill="#eaeef2"/><circle cx="1100" cy="280" r="1" fill="#eaeef2"/><circle cx="1100" cy="300" r="1" fill="#eaeef2"/><circle cx="1100" cy="320" r="1" fill="#eaeef2"/><circle cx="1120" cy="20" r="1" fill="#eaeef2"/><circle cx="1120" cy="40" r="1" fill="#eaeef2"/><circle cx="1120" cy="60" r="1" fill="#eaeef2"/><circle cx="1120" cy="80" r="1" fill="#eaeef2"/><circle cx="1120" cy="100" r="1" fill="#eaeef2"/><circle cx="1120" cy="120" r="1" fill="#eaeef2"/><circle cx="1120" cy="140" r="1" fill="#eaeef2"/><circle cx="1120" cy="160" r="1" fill="#eaeef2"/><circle cx="1120" cy="180" r="1" fill="#eaeef2"/><circle cx="1120" cy="200" r="1" fill="#eaeef2"/><circle cx="1120" cy="220" r="1" fill="#eaeef2"/><circle cx="1120" cy="240" r="1" fill="#eaeef2"/><circle cx="1120" cy="260" r="1" fill="#eaeef2"/><circle cx="1120" cy="280" r="1" fill="#eaeef2"/><circle cx="1120" cy="300" r="1" fill="#eaeef2"/><circle cx="1120" cy="320" r="1" fill="#eaeef2"/><circle cx="1140" cy="20" r="1" fill="#eaeef2"/><circle cx="1140" cy="40" r="1" fill="#eaeef2"/><circle cx="1140" cy="60" r="1" fill="#eaeef2"/><circle cx="1140" cy="80" r="1" fill="#eaeef2"/><circle cx="1140" cy="100" r="1" fill="#eaeef2"/><circle cx="1140" cy="120" r="1" fill="#eaeef2"/><circle cx="1140" cy="140" r="1" fill="#eaeef2"/><circle cx="1140" cy="160" r="1" fill="#eaeef2"/><circle cx="1140" cy="180" r="1" fill="#eaeef2"/><circle cx="1140" cy="200" r="1" fill="#eaeef2"/><circle cx="1140" cy="220" r="1" fill="#eaeef2"/><circle cx="1140" cy="240" r="1" fill="#eaeef2"/><circle cx="1140" cy="260" r="1" fill="#eaeef2"/><circle cx="1140" cy="280" r="1" fill="#eaeef2"/><circle cx="1140" cy="300" r="1" fill="#eaeef2"/><circle cx="1140" cy="320" r="1" fill="#eaeef2"/><circle cx="1160" cy="20" r="1" fill="#eaeef2"/><circle cx="1160" cy="40" r="1" fill="#eaeef2"/><circle cx="1160" cy="60" r="1" fill="#eaeef2"/><circle cx="1160" cy="80" r="1" fill="#eaeef2"/><circle cx="1160" cy="100" r="1" fill="#eaeef2"/><circle cx="1160" cy="120" r="1" fill="#eaeef2"/><circle cx="1160" cy="140" r="1" fill="#eaeef2"/><circle cx="1160" cy="160" r="1" fill="#eaeef2"/><circle cx="1160" cy="180" r="1" fill="#eaeef2"/><circle cx="1160" cy="200" r="1" fill="#eaeef2"/><circle cx="1160" cy="220" r="1" fill="#eaeef2"/><circle cx="1160" cy="240" r="1" fill="#eaeef2"/><circle cx="1160" cy="260" r="1" fill="#eaeef2"/><circle cx="1160" cy="280" r="1" fill="#eaeef2"/><circle cx="1160" cy="300" r="1" fill="#eaeef2"/><circle cx="1160" cy="320" r="1" fill="#eaeef2"/><circle cx="1180" cy="20" r="1" fill="#eaeef2"/><circle cx="1180" cy="40" r="1" fill="#eaeef2"/><circle cx="1180" cy="60" r="1" fill="#eaeef2"/><circle cx="1180" cy="80" r="1" fill="#eaeef2"/><circle cx="1180" cy="100" r="1" fill="#eaeef2"/><circle cx="1180" cy="120" r="1" fill="#eaeef2"/><circle cx="1180" cy="140" r="1" fill="#eaeef2"/><circle cx="1180" cy="160" r="1" fill="#eaeef2"/><circle cx="1180" cy="180" r="1" fill="#eaeef2"/><circle cx="1180" cy="200" r="1" fill="#eaeef2"/><circle cx="1180" cy="220" r="1" fill="#eaeef2"/><circle cx="1180" cy="240" r="1" fill="#eaeef2"/><circle cx="1180" cy="260" r="1" fill="#eaeef2"/><circle cx="1180" cy="280" r="1" fill="#eaeef2"/><circle cx="1180" cy="300" r="1" fill="#eaeef2"/><circle cx="1180" cy="320" r="1" fill="#eaeef2"/>
<rect x="40" y="62" width="3" height="214" fill="#0a7d63"/>
<text x="68" y="84" font-family="ui-monospace, SFMono-Regular, 'SF Mono', Menlo, Consolas, 'Liberation Mono', monospace" font-size="13" letter-spacing="2.5" fill="#0a7d63">SENIOR SOFTWARE ENGINEER · DISTRIBUTED SYSTEMS</text>
<text x="66" y="150" font-family="-apple-system, BlinkMacSystemFont, 'Segoe UI', 'Noto Sans', Helvetica, Arial, sans-serif" font-size="56" font-weight="700" letter-spacing="-1.2" fill="#1f2328">Robiul Hasan Nowshad</text>
<text x="68" y="196" font-family="-apple-system, BlinkMacSystemFont, 'Segoe UI', 'Noto Sans', Helvetica, Arial, sans-serif" font-size="21" fill="#59636e">I design and run multi-tenant platforms for fintech</text>
<text x="68" y="224" font-family="-apple-system, BlinkMacSystemFont, 'Segoe UI', 'Noto Sans', Helvetica, Arial, sans-serif" font-size="21" fill="#59636e">and enterprise, at national scale.</text>
<text x="68" y="274" font-family="-apple-system, BlinkMacSystemFont, 'Segoe UI', 'Noto Sans', Helvetica, Arial, sans-serif" font-size="15" fill="#59636e">BRAC IT Services  ·  Dhaka, Bangladesh  ·  <tspan fill="#1f2328" font-weight="600">Open to Tech Lead roles</tspan></text>
<path d="M888 87 C909.0 87, 909.0 174, 930 174" fill="none" stroke="#d1d9e0" stroke-width="1.2"/><path d="M888 145 C909.0 145, 909.0 174, 930 174" fill="none" stroke="#d1d9e0" stroke-width="1.2"/><path d="M888 203 C909.0 203, 909.0 174, 930 174" fill="none" stroke="#d1d9e0" stroke-width="1.2"/><path d="M888 261 C909.0 261, 909.0 174, 930 174" fill="none" stroke="#d1d9e0" stroke-width="1.2"/><path d="M1020 174 C1040.0 174, 1040.0 116, 1060 116" fill="none" stroke="#d1d9e0" stroke-width="1.2"/><path d="M1020 174 C1040.0 174, 1040.0 232, 1060 232" fill="none" stroke="#d1d9e0" stroke-width="1.2"/><path d="M1148 116 C1148.0 116, 1148.0 215, 1148 215" fill="none" stroke="#d1d9e0" stroke-width="1.2" stroke-dasharray="3 4"/><rect x="770" y="70" width="118" height="34" rx="6" fill="#f6f8fa" stroke="#d1d9e0" stroke-width="1.2"/><text x="829.0" y="92" text-anchor="middle" font-family="ui-monospace, SFMono-Regular, 'SF Mono', Menlo, Consolas, 'Liberation Mono', monospace" font-size="12" fill="#59636e">tenant · brac</text><rect x="770" y="128" width="118" height="34" rx="6" fill="#f6f8fa" stroke="#d1d9e0" stroke-width="1.2"/><text x="829.0" y="150" text-anchor="middle" font-family="ui-monospace, SFMono-Regular, 'SF Mono', Menlo, Consolas, 'Liberation Mono', monospace" font-size="12" fill="#59636e">tenant · bank</text><rect x="770" y="186" width="118" height="34" rx="6" fill="#f6f8fa" stroke="#d1d9e0" stroke-width="1.2"/><text x="829.0" y="208" text-anchor="middle" font-family="ui-monospace, SFMono-Regular, 'SF Mono', Menlo, Consolas, 'Liberation Mono', monospace" font-size="12" fill="#59636e">tenant · bkash</text><rect x="770" y="244" width="118" height="34" rx="6" fill="#f6f8fa" stroke="#d1d9e0" stroke-width="1.2"/><text x="829.0" y="266" text-anchor="middle" font-family="ui-monospace, SFMono-Regular, 'SF Mono', Menlo, Consolas, 'Liberation Mono', monospace" font-size="12" fill="#59636e">tenant · mfi</text><rect x="930" y="157" width="90" height="34" rx="6" fill="#f6f8fa" stroke="#0a7d63" stroke-width="1.2"/><text x="975.0" y="179" text-anchor="middle" font-family="ui-monospace, SFMono-Regular, 'SF Mono', Menlo, Consolas, 'Liberation Mono', monospace" font-size="12" fill="#1f2328">api</text><rect x="1060" y="99" width="120" height="34" rx="6" fill="#f6f8fa" stroke="#d1d9e0" stroke-width="1.2"/><text x="1120.0" y="121" text-anchor="middle" font-family="ui-monospace, SFMono-Regular, 'SF Mono', Menlo, Consolas, 'Liberation Mono', monospace" font-size="12" fill="#59636e">postgres</text><rect x="1060" y="215" width="120" height="34" rx="6" fill="#f6f8fa" stroke="#d1d9e0" stroke-width="1.2"/><text x="1120.0" y="237" text-anchor="middle" font-family="ui-monospace, SFMono-Regular, 'SF Mono', Menlo, Consolas, 'Liberation Mono', monospace" font-size="12" fill="#59636e">redis · mq</text><text x="770" y="300" font-family="ui-monospace, SFMono-Regular, 'SF Mono', Menlo, Consolas, 'Liberation Mono', monospace" font-size="11" fill="#59636e" letter-spacing="1">ISOLATED TENANTS · SHARED PLATFORM</text>
</svg>